<?xml version="1.0" encoding="UTF-8"?>
<svg version="1.1" xmlns="http://www.w3.org/2000/svg" width="807" height="132">
<path d="M0 0 C5.94 0 11.88 0 18 0 C19.09054687 2.65289063 19.09054687 2.65289063 20.203125 5.359375 C27.32118499 22.63773759 34.59208895 39.84389732 42 57 C49.90460224 38.08891053 57.57453434 19.10449531 65 0 C70.94 0 76.88 0 83 0 C82.01 1.65 81.02 3.3 80 5 C79.60380299 7.93875708 79.60380299 7.93875708 79.7578125 11.12890625 C79.78520508 12.36527832 79.81259766 13.60165039 79.84082031 14.87548828 C79.89147402 16.25041628 79.94463574 17.62525363 80 19 C80.02670776 19.72354675 80.05341553 20.44709351 80.08093262 21.19256592 C80.26189645 25.95319822 80.49079474 30.71026184 80.74462891 35.4675293 C80.87463168 37.93052189 80.99423163 40.39387852 81.11328125 42.85742188 C81.2706524 60.71072401 81.2706524 60.71072401 87 77 C87 77.66 87 78.32 87 79 C80.55929529 79.10655578 74.37358711 78.96205088 68 78 C68.495 76.515 68.495 76.515 69 75 C69.24294668 71.88129955 69.18967443 68.75210676 69.1875 65.625 C69.1884668 64.16791626 69.1884668 64.16791626 69.18945312 62.68139648 C69.0829345 46.77259777 67.96145806 30.87556478 67 15 C66.60321045 15.9794458 66.2064209 16.9588916 65.79760742 17.96801758 C57.55203468 38.32031196 49.2959679 58.66818623 41 79 C39.68 79 38.36 79 37 79 C34.44045113 72.93926866 31.88106361 66.87846919 29.32177734 60.81762695 C28.45495068 58.76487766 27.58808989 56.71214279 26.72119141 54.65942383 C21.13965745 41.4428947 15.56424256 28.22381878 10 15 C8.8165115 29.99032972 7.79580466 44.95710807 7.6875 60 C7.67009766 61.11930908 7.65269531 62.23861816 7.63476562 63.3918457 C7.63541016 64.43816162 7.63605469 65.48447754 7.63671875 66.5625 C7.63373779 67.47128906 7.63075684 68.38007812 7.62768555 69.31640625 C7.95170226 72.70354865 7.95170226 72.70354865 11 78 C5.72 78 0.44 78 -5 78 C-4.01 77.505 -4.01 77.505 -3 77 C-1.14745868 70.2597574 -0.45864974 63.57891597 0.0625 56.625 C0.14483887 55.57280273 0.22717773 54.52060547 0.31201172 53.43652344 C1.31347972 40.33613213 2.07030021 27.26572798 2.1875 14.125 C2.20055176 13.28614258 2.21360352 12.44728516 2.22705078 11.58300781 C2.22817871 10.79506836 2.22930664 10.00712891 2.23046875 9.1953125 C2.23457764 8.50453613 2.23868652 7.81375977 2.24291992 7.10205078 C2.02794412 4.4358554 2.02794412 4.4358554 0 0 Z " fill="#BD9970" transform="translate(378,7)"/>
<path d="M0 0 C8.19384714 7.52279931 11.38309315 17.0126797 12.22265625 27.8828125 C12.59413274 40.25459476 9.67629077 51.7984524 1.11328125 61.03515625 C-9.49359853 70.85016682 -21.33013139 72.60765819 -35.28515625 72.3125 C-46.78714005 71.76139676 -55.57561756 67.00573107 -63.25 58.625 C-70.47590449 49.63189061 -73.15220807 38.44892467 -72 27 C-70.17901608 14.72748652 -65.83845653 6.70243501 -56.3515625 -1.27734375 C-40.24616615 -13.07548294 -15.61334501 -11.8772946 0 0 Z M-52.9375 4.75 C-59.01708145 12.51755936 -60.49448769 21.21203267 -59.78515625 30.94921875 C-58.17825379 42.65665095 -54.07274603 53.14550255 -45 61 C-37.36954239 66.74306527 -29.28052601 67.07865763 -20 66 C-12.15775185 64.1062753 -7.8996296 59.6430206 -3.74609375 52.9921875 C1.26120573 42.97758854 0.31597622 29.39084356 -2.625 18.875 C-6.15227687 9.20264148 -10.8354033 2.88778491 -20 -2 C-30.98791456 -5.66263819 -44.87413693 -3.74831627 -52.9375 4.75 Z " fill="#BD9970" transform="translate(208,15)"/>
<path d="M0 0 C5.56434299 -0.07513655 11.12837945 -0.1290594 16.69311523 -0.16479492 C18.57923539 -0.17971955 20.46532185 -0.20006664 22.35131836 -0.22631836 C38.92292203 -0.45091357 56.85329137 -0.61788635 69.875 11.25 C77.21768105 19.18148094 78.37540249 28.82534738 78.27734375 39.23046875 C77.42087386 50.87122154 72.72180664 60.73622312 64.3125 68.75 C57.59365616 74.31667216 49.10372408 78.13764759 40.32324219 78.11352539 C39.40258972 78.11344986 38.48193726 78.11337433 37.53338623 78.11329651 C36.54783752 78.10813522 35.56228882 78.10297394 34.546875 78.09765625 C33.53151672 78.0962413 32.51615845 78.09482635 31.47003174 78.09336853 C28.22999108 78.08777516 24.99001975 78.07522385 21.75 78.0625 C19.55208433 78.05748414 17.35416758 78.05292139 15.15625 78.04882812 C9.77080971 78.0378079 4.38540981 78.02107633 -1 78 C-0.51202438 77.32113235 -0.02404877 76.64226471 0.47871399 75.94282532 C2.33853896 72.34511919 2.36210178 69.95443344 2.34057617 65.91479492 C2.34101425 65.22156128 2.34145233 64.52832764 2.34190369 63.81408691 C2.3398233 61.53592189 2.31652893 59.25850429 2.29296875 56.98046875 C2.2873701 55.39578147 2.28310127 53.81108899 2.28010559 52.22639465 C2.26867794 48.06537416 2.23922892 43.90467025 2.20599365 39.74377441 C2.17524775 35.49394004 2.16159062 31.24405428 2.14648438 26.99414062 C2.11435699 18.66261551 2.0631861 10.33134719 2 2 C1.34 2 0.68 2 0 2 C0 1.34 0 0.68 0 0 Z M15 6 C14.90736541 14.42307848 14.83626891 22.84594456 14.79275131 31.26940632 C14.77186612 35.18068226 14.74353241 39.09161002 14.69824219 43.00268555 C14.65481624 46.77633783 14.63086991 50.54965498 14.62049103 54.32353783 C14.61309367 55.76410385 14.59864827 57.2046513 14.57707977 58.64507484 C14.54809503 60.66074396 14.54636653 62.67674951 14.54589844 64.69262695 C14.53701599 65.84068314 14.52813354 66.98873932 14.51898193 68.17158508 C14.73380378 71.10261261 14.73380378 71.10261261 16.8999176 72.87094116 C19.22727205 74.12218736 20.6049593 74.37418526 23.23046875 74.36328125 C24.03419922 74.36263672 24.83792969 74.36199219 25.66601562 74.36132812 C26.91415039 74.3371582 26.91415039 74.3371582 28.1875 74.3125 C29.00025391 74.31572266 29.81300781 74.31894531 30.65039062 74.32226562 C40.8015909 74.23343253 48.98182114 72.32323904 56.69140625 65.50390625 C64.45912786 57.38576111 65.55292372 47.68468501 65.40234375 36.92553711 C65.06542506 27.3243116 63.23998039 18.82930924 56 12 C43.83828839 3.87150908 29.01327393 3.51862455 15 6 Z " fill="#BD9970" transform="translate(259,7)"/>
<path d="M0 0 C4.35581651 -0.10007178 8.71099593 -0.17202448 13.06762695 -0.21972656 C14.54463378 -0.23964487 16.02156384 -0.26679007 17.49829102 -0.30175781 C37.67663008 -0.76704335 37.67663008 -0.76704335 45.02075195 5.80957031 C49.92418702 11.16745554 50.35919489 15.93682409 50.2734375 23.0546875 C49.83201992 27.80938538 47.96704068 30.26701226 44.45703125 33.359375 C40.30543916 36.58944665 35.92184763 38.25121437 31 40 C31.54188965 40.64678711 31.54188965 40.64678711 32.09472656 41.30664062 C39.326888 49.95964995 46.42654347 58.65349889 53.00292969 67.8203125 C55.69307458 71.50899946 58.36449728 74.17969138 62 77 C62 77.66 62 78.32 62 79 C56.26889302 80.12401856 50.64024468 80.91081638 45 79 C39.7237381 75.05566125 36.294696 69.12055054 32.75878906 63.66210938 C29.75592155 59.11695844 26.44887048 54.79865923 23.1875 50.4375 C21.51342263 48.15171053 19.84384894 45.86273108 18.17651367 43.57202148 C17.09017478 42.04269791 17.09017478 42.04269791 16 41 C15.95033811 45.44741318 15.91415707 49.8946768 15.89013672 54.34228516 C15.88011661 55.85338149 15.86649679 57.36445862 15.84912109 58.87548828 C15.82469608 61.05506142 15.81347693 63.23437684 15.8046875 65.4140625 C15.79421387 66.7232666 15.78374023 68.0324707 15.77294922 69.38134766 C15.99633237 72.9415466 16.7064777 75.69234262 18 79 C16.10424749 79.02721176 14.20838021 79.04649136 12.3125 79.0625 C10.72888672 79.07990234 10.72888672 79.07990234 9.11328125 79.09765625 C6.27589738 79.00865425 3.7561081 78.64939838 1 78 C1.16200394 77.31603653 1.32400787 76.63207306 1.49092102 75.92738342 C2.06586375 72.62126022 2.13462496 69.51834325 2.14526367 66.16186523 C2.14862228 65.4945639 2.1519809 64.82726257 2.15544128 64.13973999 C2.16489819 61.94600538 2.16689139 59.75234745 2.16796875 57.55859375 C2.17118379 56.02832508 2.17454804 54.49805672 2.17805481 52.9677887 C2.18403203 49.76603482 2.18589604 46.56430789 2.18530273 43.36254883 C2.18520092 39.26126588 2.19887972 35.16015527 2.21607494 31.05891323 C2.22719246 27.90105902 2.22922206 24.74324661 2.22869301 21.58537483 C2.22987247 20.07311468 2.23429239 18.56085343 2.24202538 17.04861259 C2.25182516 14.93519845 2.24894803 12.82216046 2.24291992 10.70874023 C2.24505745 8.90601906 2.24505745 8.90601906 2.24723816 7.06687927 C2.01069771 4.13270035 1.53889888 2.47004465 0 0 Z M15 6 C15 15.9 15 25.8 15 36 C25.1500042 36.24375508 25.1500042 36.24375508 33.57421875 31.53515625 C37.1512622 27.34314831 38.29287344 24.68112768 38.22265625 19.1640625 C37.79387799 14.99663875 36.12773029 11.63520892 33.75 8.1875 C27.82791194 4.16894024 21.6371148 4.67257704 15 6 Z " fill="#BD9970" transform="translate(606,7)"/>
<path d="M0 0 C5.61 0 11.22 0 17 0 C16.34 1.98 15.68 3.96 15 6 C14.72750457 9.3811771 14.72750457 9.3811771 14.8046875 12.9296875 C14.81113281 14.21875 14.81757812 15.5078125 14.82421875 16.8359375 C14.84092537 18.18229442 14.85785521 19.52864859 14.875 20.875 C14.88504336 22.24478517 14.89416683 23.61457742 14.90234375 24.984375 C14.92585588 28.32309756 14.9587207 31.66145761 15 35 C19.00687205 31.14155881 22.99353572 27.26372623 26.96289062 23.36669922 C28.31560496 22.04413887 29.673658 20.72701593 31.03710938 19.41552734 C32.99741427 17.52809093 34.93761448 15.62185789 36.875 13.7109375 C37.48746582 13.12943939 38.09993164 12.54794128 38.73095703 11.94882202 C42.27920534 8.41726711 42.27920534 8.41726711 43.3828125 3.58056641 C43.25648438 2.72897949 43.13015625 1.87739258 43 1 C47.15626368 -0.00926479 51.04365094 -0.10239579 55.3125 -0.0625 C56.56675781 -0.05347656 57.82101562 -0.04445313 59.11328125 -0.03515625 C60.06589844 -0.02355469 61.01851562 -0.01195312 62 0 C58.84473955 3.24525005 55.63243958 6.15965795 52.0625 8.9375 C47.29179796 12.79424961 42.8973702 16.91058531 38.5625 21.25 C37.97154541 21.84031006 37.38059082 22.43062012 36.77172852 23.03881836 C33.63417222 26.21590292 30.71813947 29.44705111 28 33 C29.47192023 37.43220672 31.90594315 40.73090493 34.8125 44.3125 C35.29098389 44.9113501 35.76946777 45.5102002 36.26245117 46.12719727 C37.83485159 48.09035979 39.41678975 50.04554772 41 52 C42.13545193 53.40882575 43.27086811 54.81768031 44.40625 56.2265625 C47.58840694 60.1641598 50.77473606 64.09758594 54 68 C54.52126465 68.63437988 55.0425293 69.26875977 55.57958984 69.92236328 C56.09344238 70.53708496 56.60729492 71.15180664 57.13671875 71.78515625 C57.59135498 72.33179932 58.04599121 72.87844238 58.5144043 73.44165039 C60.28793965 75.38786639 60.28793965 75.38786639 64 78 C56.41 78 48.82 78 41 78 C40.67 76.35 40.34 74.7 40 73 C38.80109471 70.87802872 38.80109471 70.87802872 37.2265625 68.8828125 C36.65373535 68.11751221 36.0809082 67.35221191 35.49072266 66.5637207 C34.87503418 65.75894287 34.2593457 64.95416504 33.625 64.125 C32.35392035 62.43377885 31.08309046 60.74236995 29.8125 59.05078125 C29.17441406 58.20725098 28.53632812 57.3637207 27.87890625 56.49462891 C25.09138912 52.79363488 22.3571443 49.05444922 19.625 45.3125 C18.72155028 44.07928339 17.8179252 42.84619521 16.9140625 41.61328125 C16.28242187 40.75089844 15.65078125 39.88851562 15 39 C14.92525776 43.26835703 14.87112177 47.53635674 14.83520508 51.80517578 C14.82021583 53.25413661 14.79981729 54.70305283 14.77368164 56.15185547 C14.55047707 67.41127982 14.55047707 67.41127982 18 78 C9.585 78.495 9.585 78.495 1 79 C1 76 1 76 2 73 C2.09945217 70.86985321 2.13828935 68.73670377 2.14526367 66.60424805 C2.14862228 65.9599585 2.1519809 65.31566895 2.15544128 64.65185547 C2.16493997 62.52179027 2.16689402 60.39180381 2.16796875 58.26171875 C2.17118269 56.77822335 2.17454687 55.29472826 2.17805481 53.81123352 C2.1840438 50.70007595 2.18589501 47.58894614 2.18530273 44.4777832 C2.18520126 40.49994747 2.19883875 36.52229084 2.21607494 32.54449749 C2.22722021 29.4792042 2.22922115 26.41395382 2.22869301 23.34864235 C2.22986988 21.88269243 2.23427518 20.41674129 2.24202538 18.95081139 C2.25187405 16.8950605 2.24892802 14.83969322 2.24291992 12.78393555 C2.24434494 11.61606003 2.24576996 10.44818451 2.24723816 9.24491882 C2.0914362 5.46350765 2.0914362 5.46350765 0 0 Z " fill="#BD9970" transform="translate(699,7)"/>
<path d="M0 0 C2.57498477 2.2879041 3.81012386 4.40950693 5.13671875 7.57421875 C5.74350464 9.011604 5.74350464 9.011604 6.36254883 10.47802734 C6.79978271 11.53715332 7.2370166 12.5962793 7.6875 13.6875 C8.15373779 14.8007666 8.61997559 15.9140332 9.1003418 17.06103516 C12.15906996 24.41320745 15.12747316 31.79998607 18.0703125 39.19921875 C18.59571373 40.51900978 18.59571373 40.51900978 19.13172913 41.86546326 C20.87697873 46.25278411 22.61487061 50.64279606 24.34057617 55.0378418 C30.20772603 71.21860646 30.20772603 71.21860646 40 85 C32.41 85 24.82 85 17 85 C17.33 84.34 17.66 83.68 18 83 C18.60275971 76.61242142 16.73470085 71.61937967 14.5 65.6875 C13.84122509 63.90066845 13.18485037 62.11294956 12.53125 60.32421875 C12.23798828 59.54135498 11.94472656 58.75849121 11.64257812 57.9519043 C11 56 11 56 11 54 C2.09 54 -6.82 54 -16 54 C-16.33 55.65 -16.66 57.3 -17 59 C-18.05309894 62.11441065 -19.13369484 65.21261907 -20.27148438 68.296875 C-21.80620101 72.68177967 -22.39242685 76.36825776 -22 81 C-21.34 82.32 -20.68 83.64 -20 85 C-26.6 85 -33.2 85 -40 85 C-38.02 82.69 -36.04 80.38 -34 78 C-32.60589 75.48393015 -31.37951697 73.08697431 -30.22265625 70.47265625 C-29.89177505 69.7476442 -29.56089386 69.02263214 -29.21998596 68.27565002 C-24.76253651 58.41593716 -20.60986561 48.4200987 -16.4375 38.4375 C-14.8129185 34.56047475 -13.18625111 30.6843286 -11.55859375 26.80859375 C-10.97638565 25.4211647 -10.97638565 25.4211647 -10.38241577 24.00570679 C-7.00245791 15.96793553 -3.52774769 7.973873 0 0 Z M-3 22 C-4.66943376 26.1447245 -6.33508389 30.29095894 -8 34.4375 C-8.47695313 35.62150391 -8.95390625 36.80550781 -9.4453125 38.02539062 C-9.89648438 39.15009766 -10.34765625 40.27480469 -10.8125 41.43359375 C-11.23144531 42.47572021 -11.65039062 43.51784668 -12.08203125 44.59155273 C-13.05935881 46.72616177 -13.05935881 46.72616177 -13 48 C-6.07 48 0.86 48 8 48 C6.14701784 41.82339281 4.32822799 35.8868052 1.9375 29.9375 C1.68162109 29.27556641 1.42574219 28.61363281 1.16210938 27.93164062 C-0.10321669 24.284918 -0.10321669 24.284918 -3 22 Z " fill="#BD9970" transform="translate(534,0)"/>
<path d="M0 0 C4.47911082 -0.05856225 8.9581217 -0.09378482 13.4375 -0.125 C14.69755859 -0.14175781 15.95761719 -0.15851562 17.25585938 -0.17578125 C26.72569036 -0.22523206 35.32638212 -0.24596804 43 6 C48.28037587 11.57373008 49.44386543 17.12488276 49.2421875 24.609375 C48.72481586 29.71633373 46.45430264 32.78682128 42.8125 36.1875 C33.86848804 43.21362073 24.81349267 42.33177762 14 42 C14.11047198 46.35466167 14.24096219 50.70850499 14.375 55.0625 C14.4059375 56.29162109 14.436875 57.52074219 14.46875 58.78710938 C14.66513024 64.85853187 14.91922941 70.27390993 17 76 C17.33 76.99 17.66 77.98 18 79 C15.93757383 79.02717692 13.87504297 79.0464758 11.8125 79.0625 C10.66394531 79.07410156 9.51539063 79.08570312 8.33203125 79.09765625 C5.40699414 79.01192832 2.83683709 78.67849023 0 78 C0.32466248 76.98249161 0.64932495 75.96498322 0.98382568 74.91664124 C2.00190101 71.33728409 2.2534874 68.0690502 2.25878906 64.33374023 C2.26509338 63.05228622 2.27139771 61.77083221 2.27789307 60.45054626 C2.27431321 59.06989401 2.27021123 57.68924303 2.265625 56.30859375 C2.26697428 54.87565546 2.26891701 53.44271762 2.27142334 52.00978088 C2.27436127 49.01664848 2.2701194 46.02363598 2.26074219 43.03051758 C2.24933801 39.20523016 2.25592155 35.38022314 2.26788712 31.55494595 C2.27513298 28.59945076 2.27280548 25.64402147 2.26763153 22.68852425 C2.26630311 21.27840199 2.2679143 19.86827363 2.27259064 18.45815849 C2.27770173 16.48439533 2.26852317 14.51061101 2.25878906 12.53686523 C2.25719788 11.41658432 2.25560669 10.29630341 2.25396729 9.14207458 C1.98534266 5.8186599 1.17976992 3.10757281 0 0 Z M14 6 C14 15.9 14 25.8 14 36 C24.20298204 36.70272688 24.20298204 36.70272688 32 33 C36.15956691 28.39075018 37.35982326 25.54255251 37.28125 19.453125 C36.82918957 15.51015344 35.46191502 12.11795541 33 9 C26.97100849 4.7995099 26.97100849 4.7995099 14 6 Z " fill="#BD9970" transform="translate(54,7)"/>
<path d="M0 0 C1.65 0 3.3 0 5 0 C9 6.75 9 6.75 9 9 C9.66 9 10.32 9 11 9 C11.99 6.03 12.98 3.06 14 0 C15.65 0 17.3 0 19 0 C19.495 8.415 19.495 8.415 20 17 C18.35 17 16.7 17 15 17 C14.67 14.36 14.34 11.72 14 9 C12.68 11.64 11.36 14.28 10 17 C9.34 17 8.68 17 8 17 C6.68 14.36 5.36 11.72 4 9 C4 11.64 4 14.28 4 17 C2.35 17 0.7 17 -1 17 C-0.67 11.39 -0.34 5.78 0 0 Z " fill="#BD9970" transform="translate(652,110)"/>
<path d="M0 0 C1.98 0 3.96 0 6 0 C6.99 2.97 7.98 5.94 9 9 C9.93380961 4.46859347 9.93380961 4.46859347 9 0 C10.98 0 12.96 0 15 0 C15.99 2.97 16.98 5.94 18 9 C18.99 6.03 19.98 3.06 21 0 C22.32 0 23.64 0 25 0 C23.13236819 5.72210596 21.14710968 11.37661751 19 17 C17.078125 16.66015625 17.078125 16.66015625 15 16 C13.75 13.4375 13.75 13.4375 13 11 C10.89767656 13.8684413 10.89767656 13.8684413 10 17 C8.203125 16.93359375 8.203125 16.93359375 6 16 C4.71097601 13.66142667 3.7084493 11.52952895 2.75 9.0625 C2.481875 8.41603516 2.21375 7.76957031 1.9375 7.10351562 C0 2.34378986 0 2.34378986 0 0 Z " fill="#BD9970" transform="translate(57,110)"/>
<path d="M0 0 C1.98 0 3.96 0 6 0 C6.99 2.97 7.98 5.94 9 9 C10.68630119 5.48966871 10.68630119 5.48966871 10.625 1.6875 C10.41875 1.130625 10.2125 0.57375 10 0 C11.65 0 13.3 0 15 0 C16.32 2.97 17.64 5.94 19 9 C19.66 6.03 20.32 3.06 21 0 C22.65 0 24.3 0 26 0 C25.1024408 2.65378338 24.18348162 5.29637533 23.25 7.9375 C22.99734375 8.69224609 22.7446875 9.44699219 22.484375 10.22460938 C21.703125 12.40234375 21.703125 12.40234375 20 16 C17.89355469 16.72485352 17.89355469 16.72485352 16 17 C15.01 14.69 14.02 12.38 13 10 C12.01 12.31 11.02 14.62 10 17 C9.01 17 8.02 17 7 17 C4.69 11.39 2.38 5.78 0 0 Z " fill="#BD9970" transform="translate(452,110)"/>
<path d="M0 0 C1.65 0 3.3 0 5 0 C6.65 2.97 8.3 5.94 10 9 C11.65 6.03 13.3 3.06 15 0 C16.65 0 18.3 0 20 0 C19.98839844 0.72445312 19.97679687 1.44890625 19.96484375 2.1953125 C19.91768689 7.24783323 19.92622436 12.03378767 21 17 C19.02 17 17.04 17 15 17 C15.33 14.03 15.66 11.06 16 8 C15.34 8 14.68 8 14 8 C13.731875 8.928125 13.46375 9.85625 13.1875 10.8125 C12 14 12 14 9 17 C7.35 14.03 5.7 11.06 4 8 C4 10.97 4 13.94 4 17 C2.35 17 0.7 17 -1 17 C-0.835 16.236875 -0.67 15.47375 -0.5 14.6875 C0.16562149 9.77854151 0.07920078 4.94564886 0 0 Z " fill="#BD9970" transform="translate(309,110)"/>
<path d="M0 0 C12.64072727 -0.41672727 12.64072727 -0.41672727 17 3 C18.15479727 6.89744079 18.40330723 9.04479867 16.8125 12.8125 C14.87144123 15.15515714 13.80236166 15.91317104 11 17 C7.31289747 17.25747923 3.70183128 17.08813884 0 17 C0 11.39 0 5.78 0 0 Z M5 2 C5 5.96 5 9.92 5 14 C8.75979645 15.36283174 8.75979645 15.36283174 11.25 14.0625 C13.23923075 11.71804947 13.32350554 10.92306922 13.4375 7.9375 C13.293125 6.638125 13.14875 5.33875 13 4 C9.90754997 1.53774984 9.90754997 1.53774984 5 2 Z " fill="#BD9970" transform="translate(117,110)"/>
<path d="M0 0 C2.375 1 2.375 1 4 3 C4.56641498 5.77427747 4.56641498 8.22572253 4 11 C1.81246717 13.6923481 0.41576045 13.93936827 -3 14.4375 C-6 14 -6 14 -8.375 12.375 C-10.48706506 9.28813568 -10.61195145 7.6717087 -10 4 C-7.20125452 -0.09047416 -4.83066808 -0.70447243 0 0 Z " fill="#BD9970" transform="translate(803,72)"/>
<path d="M0 0 C3.61986532 0.8116877 5.12897034 2.4703572 7.16015625 5.484375 C7.71364263 9.35877968 7.45984188 12.26481512 5.16015625 15.484375 C2.16709918 17.78672659 -1.14673398 17.9706409 -4.8671875 17.859375 C-8.44283623 17.17964772 -9.85235691 15.4034963 -11.83984375 12.484375 C-12.6213868 8.1077339 -12.35581328 6.26665138 -9.90234375 2.546875 C-6.3257465 0.13814624 -4.23451202 -0.25449488 0 0 Z M-6.71484375 4.109375 C-8.25470657 7.36019651 -7.9232438 9.08972152 -6.83984375 12.484375 C-5.22436174 14.61332124 -5.22436174 14.61332124 -2.83984375 15.484375 C-0.06926349 15.22620757 -0.06926349 15.22620757 2.16015625 13.484375 C3.42977977 9.91355885 3.41796223 8.14321251 2.03515625 4.609375 C0.33839291 2.2678127 0.33839291 2.2678127 -2.33984375 1.921875 C-4.9205453 2.29543993 -4.9205453 2.29543993 -6.71484375 4.109375 Z " fill="#BD9970" transform="translate(151.83984375,109.515625)"/>
<path d="M0 0 C2.375 1 2.375 1 4 3 C4.66300779 6.57577233 4.65930485 9.75895557 2.9375 13 C-0.17909511 14.60856522 -2.56262469 14.42213381 -6 14 C-8.5 12.4375 -8.5 12.4375 -10 10 C-9.93866496 6.5039028 -9.65265114 4.06485186 -7.8125 1.0625 C-5.07756873 -0.54073557 -3.1096607 -0.38077478 0 0 Z " fill="#BD9970" transform="translate(10,72)"/>
<path d="M0 0 C1.60875 -0.04125 3.2175 -0.0825 4.875 -0.125 C5.77992188 -0.14820312 6.68484375 -0.17140625 7.6171875 -0.1953125 C10 0 10 0 12 2 C12.20786098 4.63290579 12.15588557 6.5713147 11.25 9.0625 C11.12625 10.0215625 11.12625 10.0215625 11 11 C12.89586384 13.14589423 12.89586384 13.14589423 15 15 C15 15.66 15 16.32 15 17 C12.8125 17.375 12.8125 17.375 10 17 C8.00977164 15.16038352 6.61010101 13.20813852 5 11 C5 12.98 5 14.96 5 17 C3.35 17 1.7 17 0 17 C0 11.39 0 5.78 0 0 Z M4 2 C4 3.65 4 5.3 4 7 C5.32 6.67 6.64 6.34 8 6 C7.67 4.68 7.34 3.36 7 2 C6.01 2 5.02 2 4 2 Z " fill="#BD9970" transform="translate(534,110)"/>
<path d="M0 0 C1.60875 -0.04125 3.2175 -0.0825 4.875 -0.125 C5.77992188 -0.14820312 6.68484375 -0.17140625 7.6171875 -0.1953125 C10 0 10 0 12 2 C12.20786098 4.63290579 12.15588557 6.5713147 11.25 9.0625 C11.12625 10.0215625 11.12625 10.0215625 11 11 C12.89586384 13.14589423 12.89586384 13.14589423 15 15 C15 15.66 15 16.32 15 17 C12.8125 17.375 12.8125 17.375 10 17 C8.00977164 15.16038352 6.61010101 13.20813852 5 11 C5 12.98 5 14.96 5 17 C3.35 17 1.7 17 0 17 C0 11.39 0 5.78 0 0 Z M4 2 C4 3.65 4 5.3 4 7 C5.32 6.67 6.64 6.34 8 6 C7.67 4.68 7.34 3.36 7 2 C6.01 2 5.02 2 4 2 Z " fill="#BD9970" transform="translate(357,110)"/>
<path d="M0 0 C1.65 0 3.3 0 5 0 C5 1.65 5 3.3 5 5 C6.32 4.34 7.64 3.68 9 3 C9 2.01 9 1.02 9 0 C10.65 0 12.3 0 14 0 C12.86695008 3.39914975 11.87481525 4.05254451 9 6 C10.19899698 9.0831351 11.47700477 12.06279492 13 15 C13.66 15 14.32 15 15 15 C15 15.66 15 16.32 15 17 C12.25 17.375 12.25 17.375 9 17 C6.625 14 6.625 14 5 11 C5 12.98 5 14.96 5 17 C3.35 17 1.7 17 0 17 C0 11.39 0 5.78 0 0 Z " fill="#BD9970" transform="translate(377,110)"/>
<path d="M0 0 C6 0 6 0 8.1171875 1.75 C8.98730469 2.86375 8.98730469 2.86375 9.875 4 C10.47054687 4.7425 11.06609375 5.485 11.6796875 6.25 C12.11539063 6.8275 12.55109375 7.405 13 8 C13 5.36 13 2.72 13 0 C14.32 0 15.64 0 17 0 C16.67 5.94 16.34 11.88 16 18 C12.33333333 14.33333333 8.66666667 10.66666667 5 7 C5 10.3 5 13.6 5 17 C3.35 17 1.7 17 0 17 C0 11.39 0 5.78 0 0 Z " fill="#BD9970" transform="translate(165,110)"/>
<path d="M0 0 C1.65 0 3.3 0 5 0 C5 4.62 5 9.24 5 14 C6.98 13.67 8.96 13.34 11 13 C11.33 8.71 11.66 4.42 12 0 C13.32 0 14.64 0 16 0 C15.91297874 2.27155498 15.80480478 4.54230743 15.6875 6.8125 C15.62949219 8.07707031 15.57148438 9.34164062 15.51171875 10.64453125 C15 14 15 14 13.70703125 15.9296875 C11.6407786 17.22523264 10.42644093 17.37224192 8 17.3125 C6.9790625 17.30669922 6.9790625 17.30669922 5.9375 17.30078125 C4 17 4 17 1 15 C0.61588725 12.390379 0.39706803 9.9941926 0.3125 7.375 C0.27833984 6.66859375 0.24417969 5.9621875 0.20898438 5.234375 C0.12648692 3.49014312 0.06156665 1.74509605 0 0 Z " fill="#BD9970" transform="translate(240,110)"/>
<path d="M0 0 C3 1 3 1 4.5703125 4.0546875 C5.09966643 5.3235409 5.61747414 6.59725901 6.125 7.875 C6.38925781 8.51308594 6.65351563 9.15117188 6.92578125 9.80859375 C8.0392573 12.51597968 9.07411226 15.22233679 10 18 C7.69 18 5.38 18 3 18 C3 16.02 3 14.04 3 12 C1.35 12.33 -0.3 12.66 -2 13 C-2.33 14.65 -2.66 16.3 -3 18 C-4.65 18 -6.3 18 -8 18 C-6.443154 13.98696492 -4.68861143 10.0907072 -2.875 6.1875 C-2.33617187 5.02605469 -1.79734375 3.86460938 -1.2421875 2.66796875 C-0.62730469 1.34732422 -0.62730469 1.34732422 0 0 Z M0 7 C-0.33 7.99 -0.66 8.98 -1 10 C-0.01 9.67 0.98 9.34 2 9 C1.34 8.34 0.68 7.68 0 7 Z " fill="#BD9970" transform="translate(342,109)"/>
<path d="M0 0 C0.66 0 1.32 0 2 0 C3.17112946 2.62309099 4.33705964 5.24828142 5.5 7.875 C5.83386719 8.62136719 6.16773438 9.36773437 6.51171875 10.13671875 C6.98544922 11.20986328 6.98544922 11.20986328 7.46875 12.3046875 C7.90864258 13.2944458 7.90864258 13.2944458 8.35742188 14.30419922 C9 16 9 16 9 18 C7.02 18 5.04 18 3 18 C2.67 16.35 2.34 14.7 2 13 C0.35 12.67 -1.3 12.34 -3 12 C-3 13.98 -3 15.96 -3 18 C-4.65 18 -6.3 18 -8 18 C-6.65150163 13.64029169 -4.95092154 9.68658562 -2.875 5.625 C-2.33617187 4.56539063 -1.79734375 3.50578125 -1.2421875 2.4140625 C-0.83226562 1.61742188 -0.42234375 0.82078125 0 0 Z M-1 7 C-1 7.99 -1 8.98 -1 10 C-0.34 10 0.32 10 1 10 C0.67 9.01 0.34 8.02 0 7 C-0.33 7 -0.66 7 -1 7 Z " fill="#BD9970" transform="translate(703,109)"/>
<path d="M0 0 C3 1 3 1 4.5703125 4.0546875 C5.09966643 5.3235409 5.61747414 6.59725901 6.125 7.875 C6.38925781 8.51308594 6.65351562 9.15117188 6.92578125 9.80859375 C8.0392573 12.51597968 9.07411226 15.22233679 10 18 C8.02 18 6.04 18 4 18 C3.67 16.02 3.34 14.04 3 12 C1.35 12.33 -0.3 12.66 -2 13 C-2.33 14.65 -2.66 16.3 -3 18 C-4.65 18 -6.3 18 -8 18 C-6.443154 13.98696492 -4.68861143 10.0907072 -2.875 6.1875 C-2.33617187 5.02605469 -1.79734375 3.86460938 -1.2421875 2.66796875 C-0.62730469 1.34732422 -0.62730469 1.34732422 0 0 Z M0 7 C-0.33 7.99 -0.66 8.98 -1 10 C-0.01 9.67 0.98 9.34 2 9 C1.34 8.34 0.68 7.68 0 7 Z " fill="#BD9970" transform="translate(578,109)"/>
<path d="M0 0 C3.63 0 7.26 0 11 0 C11 0.99 11 1.98 11 3 C8.69 2.67 6.38 2.34 4 2 C4 3.65 4 5.3 4 7 C7.465 6.505 7.465 6.505 11 6 C11 7.32 11 8.64 11 10 C8.69 9.67 6.38 9.34 4 9 C4 10.65 4 12.3 4 14 C6.64 13.67 9.28 13.34 12 13 C12 14.32 12 15.64 12 17 C8.04 17 4.08 17 0 17 C0 11.39 0 5.78 0 0 Z " fill="#BD9970" transform="translate(554,110)"/>
<path d="M0 0 C3.63 0 7.26 0 11 0 C11 0.99 11 1.98 11 3 C8.69 2.67 6.38 2.34 4 2 C4 3.65 4 5.3 4 7 C7.465 6.505 7.465 6.505 11 6 C11 7.32 11 8.64 11 10 C8.69 9.67 6.38 9.34 4 9 C4 10.65 4 12.3 4 14 C6.64 13.67 9.28 13.34 12 13 C12 14.32 12 15.64 12 17 C8.04 17 4.08 17 0 17 C0 11.39 0 5.78 0 0 Z " fill="#BD9970" transform="translate(483,110)"/>
<path d="M0 0 C3.96 0 7.92 0 12 0 C12 0.99 12 1.98 12 3 C9.69 2.67 7.38 2.34 5 2 C5 3.65 5 5.3 5 7 C6.98 6.67 8.96 6.34 11 6 C10.67 7.32 10.34 8.64 10 10 C8.35 9.67 6.7 9.34 5 9 C5 10.65 5 12.3 5 14 C7.64 13.67 10.28 13.34 13 13 C12.67 14.32 12.34 15.64 12 17 C8.04 17 4.08 17 0 17 C0 11.39 0 5.78 0 0 Z " fill="#BD9970" transform="translate(397,110)"/>
<path d="M0 0 C3.96 0 7.92 0 12 0 C12 0.99 12 1.98 12 3 C9.69 2.67 7.38 2.34 5 2 C5 3.65 5 5.3 5 7 C6.98 6.67 8.96 6.34 11 6 C10.67 7.32 10.34 8.64 10 10 C8.35 9.67 6.7 9.34 5 9 C5 10.65 5 12.3 5 14 C7.64 13.67 10.28 13.34 13 13 C12.67 14.32 12.34 15.64 12 17 C8.04 17 4.08 17 0 17 C0 11.39 0 5.78 0 0 Z " fill="#BD9970" transform="translate(87,110)"/>
<path d="M0 0 C-0.33 1.65 -0.66 3.3 -1 5 C-1.33 4.34 -1.66 3.68 -2 3 C-6.14984647 2.67768793 -6.14984647 2.67768793 -9.9375 4.125 C-11.53943488 6.95194391 -10.79584319 8.94926777 -10 12 C-8.89674453 13.3337793 -8.89674453 13.3337793 -6.125 13.0625 C-5.09375 13.041875 -4.0625 13.02125 -3 13 C-2.01 13 -1.02 13 0 13 C0 13.99 0 14.98 0 16 C-4.6135246 17.53784153 -8.43721569 17.74741859 -12.875 15.625 C-15 14 -15 14 -16 12 C-16.47266285 7.82481154 -16.41607253 5.67432444 -14.1875 2.0625 C-9.55316252 -0.93618896 -5.37184048 -0.42334995 0 0 Z " fill="#BD9970" transform="translate(528,110)"/>
<path d="M0 0 C0.91007813 0.00902344 1.82015625 0.01804687 2.7578125 0.02734375 C3.45648437 0.03894531 4.15515625 0.05054687 4.875 0.0625 C4.875 1.7125 4.875 3.3625 4.875 5.0625 C4.33875 4.7325 3.8025 4.4025 3.25 4.0625 C0.3358939 2.83550796 -1.99367708 2.92016714 -5.125 3.0625 C-5.125 6.3625 -5.125 9.6625 -5.125 13.0625 C-3.206875 13.0934375 -3.206875 13.0934375 -1.25 13.125 C-0.53070312 13.13660156 0.18859375 13.14820312 0.9296875 13.16015625 C2.95685404 13.18899242 2.95685404 13.18899242 4.875 12.0625 C4.875 13.3825 4.875 14.7025 4.875 16.0625 C1.81070224 17.59464888 -0.7415642 17.29188548 -4.125 17.0625 C-6.98625133 15.79083274 -8.61287391 14.73757529 -10.5 12.25 C-11.37355243 9.19256649 -10.96704053 7.10680038 -10.125 4.0625 C-7.1441748 0.30406822 -4.65079929 -0.05962563 0 0 Z " fill="#BD9970" transform="translate(727.125,109.9375)"/>
<path d="M0 0 C8.625 -0.25 8.625 -0.25 12 2 C12.1875 5.125 12.1875 5.125 12 8 C8.535 9.485 8.535 9.485 5 11 C5 12.98 5 14.96 5 17 C3.35 17 1.7 17 0 17 C0 11.39 0 5.78 0 0 Z M5 2 C5 3.65 5 5.3 5 7 C5.99 7 6.98 7 8 7 C7.67 5.35 7.34 3.7 7 2 C6.34 2 5.68 2 5 2 Z " fill="#BD9970" transform="translate(679,110)"/>
<path d="M0 0 C-0.33 1.32 -0.66 2.64 -1 4 C-2.65 3.67 -4.3 3.34 -6 3 C-6.33 3.66 -6.66 4.32 -7 5 C-6.030625 5.309375 -5.06125 5.61875 -4.0625 5.9375 C-1 7 -1 7 0 8 C0.25 11.4375 0.25 11.4375 0 15 C-3.6441774 17.4294516 -5.71241272 17.16179575 -10 17 C-10.33 15.35 -10.66 13.7 -11 12 C-9.824375 12.495 -9.824375 12.495 -8.625 13 C-6.15667503 14.11866511 -6.15667503 14.11866511 -4 14 C-5.33332095 10.00003714 -7.4957827 9.16217663 -11 7 C-10.625 4.0625 -10.625 4.0625 -10 1 C-6.78548731 -0.60725635 -3.56387464 -0.05748185 0 0 Z " fill="#BD9970" transform="translate(273,110)"/>
<path d="M0 0 C3.63 0 7.26 0 11 0 C11 0.99 11 1.98 11 3 C8.69 2.67 6.38 2.34 4 2 C4 3.65 4 5.3 4 7 C7.465 6.505 7.465 6.505 11 6 C11 7.32 11 8.64 11 10 C8.69 9.67 6.38 9.34 4 9 C4.33 10.65 4.66 12.3 5 14 C8.465 13.505 8.465 13.505 12 13 C12 14.32 12 15.64 12 17 C8.04 17 4.08 17 0 17 C0 11.39 0 5.78 0 0 Z " fill="#BD9970" transform="translate(609,110)"/>
<path d="M0 0 C4.62 0 9.24 0 14 0 C14 0.99 14 1.98 14 3 C12.35 2.67 10.7 2.34 9 2 C9.33 6.95 9.66 11.9 10 17 C8.02 17 6.04 17 4 17 C4.33 12.05 4.66 7.1 5 2 C3.35 2.33 1.7 2.66 0 3 C0 2.01 0 1.02 0 0 Z " fill="#BD9970" transform="translate(736,110)"/>
<path d="M0 0 C4.62 0 9.24 0 14 0 C14 0.99 14 1.98 14 3 C12.35 2.67 10.7 2.34 9 2 C9.33 6.95 9.66 11.9 10 17 C8.02 17 6.04 17 4 17 C4.33 12.05 4.66 7.1 5 2 C3.35 2.33 1.7 2.66 0 3 C0 2.01 0 1.02 0 0 Z " fill="#BD9970" transform="translate(278,110)"/>
<path d="M0 0 C4.62 0 9.24 0 14 0 C14 0.99 14 1.98 14 3 C12.35 2.67 10.7 2.34 9 2 C9 6.95 9 11.9 9 17 C7.35 17 5.7 17 4 17 C4.33 12.05 4.66 7.1 5 2 C3.35 2.33 1.7 2.66 0 3 C0 2.01 0 1.02 0 0 Z " fill="#BD9970" transform="translate(590,110)"/>
<path d="M0 0 C4.95 0 9.9 0 15 0 C15 0.99 15 1.98 15 3 C12.03 2.505 12.03 2.505 9 2 C9.33 6.95 9.66 11.9 10 17 C8.35 17 6.7 17 5 17 C4.81548975 6.44191344 4.81548975 6.44191344 6 2 C4.02 2.33 2.04 2.66 0 3 C0 2.01 0 1.02 0 0 Z " fill="#BD9970" transform="translate(413,110)"/>
<path d="M0 0 C1.98 0 3.96 0 6 0 C5.91932999 3.12607441 5.8064771 6.25016751 5.6875 9.375 C5.66494141 10.26445313 5.64238281 11.15390625 5.61914062 12.0703125 C5.58369141 12.92109375 5.54824219 13.771875 5.51171875 14.6484375 C5.48553467 15.43395996 5.45935059 16.21948242 5.43237305 17.02880859 C5 19 5 19 2 21 C1.01 21 0.02 21 -1 21 C-1 20.01 -1 19.02 -1 18 C-0.34 18 0.32 18 1 18 C0.67 12.06 0.34 6.12 0 0 Z " fill="#BD9970" transform="translate(228,110)"/>
<path d="M0 0 C4.95 0 9.9 0 15 0 C15 0.99 15 1.98 15 3 C12.03 2.505 12.03 2.505 9 2 C9.33 6.95 9.66 11.9 10 17 C8.35 17 6.7 17 5 17 C5.33 12.05 5.66 7.1 6 2 C4.02 2.33 2.04 2.66 0 3 C0 2.01 0 1.02 0 0 Z " fill="#BD9970" transform="translate(197,110)"/>
<path d="M0 0 C1.65 0 3.3 0 5 0 C5 5.61 5 11.22 5 17 C3.35 17 1.7 17 0 17 C0 11.39 0 5.78 0 0 Z " fill="#BD9970" transform="translate(639,110)"/>
<path d="M0 0 C1.32 0 2.64 0 4 0 C3.67 5.61 3.34 11.22 3 17 C2.34 17 1.68 17 1 17 C-0.13480527 13.39006828 -0.10015767 10.0157673 -0.0625 6.25 C-0.05347656 5.07953125 -0.04445313 3.9090625 -0.03515625 2.703125 C-0.02355469 1.81109375 -0.01195312 0.9190625 0 0 Z " fill="#BD9970" transform="translate(780,104)"/>
<path d="M0 0 C1.32 0 2.64 0 4 0 C3.67 5.61 3.34 11.22 3 17 C2.34 17 1.68 17 1 17 C-0.22517308 11.33357449 -0.09228867 5.76291482 0 0 Z " fill="#BD9970" transform="translate(768,104)"/>
<path d="M0 0 C2.0625 0.4375 2.0625 0.4375 4 1 C3.8125 3.8125 3.8125 3.8125 3 7 C0.4375 8.875 0.4375 8.875 -2 10 C-2 9.01 -2 8.02 -2 7 C-1.34 7 -0.68 7 0 7 C-0.185625 6.030625 -0.37125 5.06125 -0.5625 4.0625 C-0.706875 3.051875 -0.85125 2.04125 -1 1 C-0.67 0.67 -0.34 0.34 0 0 Z " fill="#BD9970" transform="translate(433,122)"/>
<path d="M0 0 C1.32 0 2.64 0 4 0 C3.67 2.31 3.34 4.62 3 7 C1.35 7.66 -0.3 8.32 -2 9 C-1.505 7.88625 -1.505 7.88625 -1 6.75 C0.22782871 3.86116688 0.22782871 3.86116688 0 0 Z " fill="#BD9970" transform="translate(190,103)"/>
<path d="M0 0 C0.99 0.33 1.98 0.66 3 1 C3 2.32 3 3.64 3 5 C1.68 5 0.36 5 -1 5 C-0.67 3.35 -0.34 1.7 0 0 Z " fill="#BD9970" transform="translate(769,122)"/>
<path d="M0 0 C1.485 0.99 1.485 0.99 3 2 C2.67 2.99 2.34 3.98 2 5 C1.01 5 0.02 5 -1 5 C-0.67 3.35 -0.34 1.7 0 0 Z " fill="#BD9970" transform="translate(781,122)"/>
</svg>
